<!-- Lucide "popcorn" (lucide-static 1.52.0, ISC, siehe LICENSE-lucide.txt). Erzeugt von scripts/build-icons.mjs, nicht von Hand ändern. -->
<svg xmlns="http://www.w3.org/2000/svg" viewBox="0 0 24 24" fill="none" stroke="currentColor" stroke-width="1.8" stroke-linecap="round" stroke-linejoin="round">
  <path d="M18 8a2 2 0 0 0 0-4 2 2 0 0 0-4 0 2 2 0 0 0-4 0 2 2 0 0 0-4 0 2 2 0 0 0 0 4" />
  <path d="M10 22 9 8" />
  <path d="m14 22 1-14" />
  <path d="M20 8c.5 0 .9.4.8 1l-2.6 12c-.1.5-.7 1-1.2 1H7c-.6 0-1.1-.4-1.2-1L3.2 9c-.1-.6.3-1 .8-1Z" />
</svg>
