<!-- Lucide "theater" (lucide-static 1.52.0, ISC, siehe LICENSE-lucide.txt). Erzeugt von scripts/build-icons.mjs, nicht von Hand ändern. -->
<svg xmlns="http://www.w3.org/2000/svg" viewBox="0 0 24 24" fill="none" stroke="currentColor" stroke-width="1.8" stroke-linecap="round" stroke-linejoin="round">
  <path d="M2 10s3-3 3-8" />
  <path d="M22 10s-3-3-3-8" />
  <path d="M10 2c0 4.4-3.6 8-8 8" />
  <path d="M14 2c0 4.4 3.6 8 8 8" />
  <path d="M2 10s2 2 2 5" />
  <path d="M22 10s-2 2-2 5" />
  <path d="M8 15h8" />
  <path d="M2 22v-1a2 2 0 0 1 2-2h4a2 2 0 0 1 2 2v1" />
  <path d="M14 22v-1a2 2 0 0 1 2-2h4a2 2 0 0 1 2 2v1" />
</svg>
